<svg width="111" height="111" viewBox="0 0 111 111" fill="none" xmlns="http://www.w3.org/2000/svg">
<path d="M72.705 50.6789C66.8775 50.6789 62.16 55.3964 62.16 61.2239V89.2514H82.9726V61.2239C83.2501 55.3964 78.5325 50.6789 72.705 50.6789Z" stroke="black" stroke-width="2" stroke-miterlimit="10" stroke-linecap="round" stroke-linejoin="round"/>
<path d="M62.4375 81.4814H83.25" stroke="black" stroke-width="2" stroke-miterlimit="10" stroke-linecap="round" stroke-linejoin="round"/>
<path d="M49.6725 89.2514H27.75V60.6689C27.75 58.7264 29.415 57.0614 31.3575 57.0614H46.065C48.0075 57.0614 49.6725 58.7264 49.6725 60.6689V89.2514Z" fill="#DEB3A4" stroke="black" stroke-width="2" stroke-miterlimit="10" stroke-linecap="round" stroke-linejoin="round"/>
<path d="M28.3049 64.8314H49.3949" stroke="black" stroke-width="2" stroke-miterlimit="10" stroke-linecap="round" stroke-linejoin="round"/>
<path d="M47.4524 39.8564H30.2474V57.0614H47.4524V39.8564Z" fill="#DEB3A4" stroke="black" stroke-width="2" stroke-miterlimit="10" stroke-linecap="round" stroke-linejoin="round"/>
<path d="M44.6775 39.8564H32.745V28.2014L42.18 22.3739C43.29 21.8189 44.6775 22.6514 44.6775 24.0389V39.8564Z" stroke="black" stroke-width="2" stroke-miterlimit="10" stroke-linecap="round" stroke-linejoin="round"/>
</svg>
