<svg width="72" height="72" viewBox="0 0 72 72" fill="none" xmlns="http://www.w3.org/2000/svg">
<path d="M61.56 36.5401C59.58 47.5201 50.0401 55.08 39.4201 55.08C37.9801 55.08 36.72 54.9 35.28 54.72C37.62 52.38 39.42 49.68 40.68 46.98C40.68 46.8 40.86 46.6201 40.86 46.4401C41.4 45.3601 41.7601 44.28 42.1201 43.2C42.3001 42.84 42.3 42.3001 42.48 41.9401C43.92 40.6801 45.36 39.6 46.98 38.7C51.48 36.54 56.52 35.6401 61.56 36.5401Z" fill="#DEB3A4" stroke="black" stroke-width="2" stroke-miterlimit="10" stroke-linecap="round" stroke-linejoin="round"/>
<path d="M35.28 54.72C33.84 54.9 32.58 55.08 31.14 55.08C20.34 55.08 10.98 47.5201 9 36.5401C14.22 35.6401 19.26 36.54 23.4 38.7C25.02 39.6 26.64 40.6801 27.9 41.9401C28.08 42.3001 28.08 42.84 28.26 43.2C28.62 44.28 28.98 45.3601 29.34 46.4401C29.34 46.6201 29.52 46.8 29.52 46.98C31.14 49.68 32.94 52.38 35.28 54.72Z" fill="#DEB3A4" stroke="black" stroke-width="2" stroke-miterlimit="10" stroke-linecap="round" stroke-linejoin="round"/>
<path d="M43.2 35.46C43.2 37.62 43.02 39.78 42.48 41.94C42.3 42.3 42.3 42.84 42.12 43.2C41.76 44.28 41.4 45.36 40.86 46.44C40.86 46.62 40.68 46.8 40.68 46.98C39.42 49.86 37.44 52.38 35.28 54.72C32.94 52.38 31.14 49.68 29.88 46.98C29.88 46.8 29.7 46.62 29.7 46.44C29.16 45.36 28.8 44.28 28.62 43.2C28.44 42.84 28.44 42.3 28.26 41.94C27 36.9 27.36 31.5 28.98 26.64C30.24 22.86 32.4 19.26 35.46 16.2C38.52 19.26 40.68 22.86 41.94 26.64C42.84 29.52 43.2 32.4 43.2 35.46Z" fill="#DEB3A4" stroke="black" stroke-width="2" stroke-miterlimit="10" stroke-linecap="round" stroke-linejoin="round"/>
<path d="M52.5601 23.9401C52.5601 29.5201 50.5801 34.74 47.1601 38.7C45.5401 39.6 43.9201 40.6801 42.6601 41.9401C43.2001 39.7801 43.38 37.6201 43.38 35.4601C43.38 32.4001 42.8401 29.5201 41.9401 26.6401C45.0001 24.8401 48.6001 23.9401 52.5601 23.9401Z" stroke="black" stroke-width="2" stroke-miterlimit="10" stroke-linecap="round" stroke-linejoin="round"/>
<path d="M28.0801 41.9401C26.6401 40.6801 25.2001 39.6 23.5801 38.7C20.1601 34.74 18.1801 29.5201 18.1801 23.9401C21.9601 23.9401 25.74 24.8401 28.8 26.6401C27 31.5001 26.8201 36.9001 28.0801 41.9401Z" stroke="black" stroke-width="2" stroke-miterlimit="10" stroke-linecap="round" stroke-linejoin="round"/>
</svg>
