<svg width="74" height="74" viewBox="0 0 74 74" fill="none" xmlns="http://www.w3.org/2000/svg">
<path d="M50.8749 58.09L47.545 57.165L48.47 60.495C45.14 63.455 41.2549 65.305 36.9999 65.305C32.93 65.305 29.0449 63.455 25.5299 60.495L26.4549 57.165L23.125 58.09C17.02 51.43 12.95 41.07 12.95 33.115C12.95 28.305 14.43 23.68 17.02 19.795L22.9399 21.46L21.275 15.17C25.53 11.47 31.08 9.25 37.185 9.25C43.29 9.25 48.84 11.47 53.095 15.17L51.4299 21.46L57.3499 19.795C59.9399 23.68 61.42 28.12 61.42 33.115C61.05 41.07 57.1649 51.245 50.8749 58.09Z" stroke="black" stroke-width="2" stroke-miterlimit="10" stroke-linecap="round" stroke-linejoin="round"/>
<path d="M27.0099 40.145C30.3816 40.145 33.1149 38.4884 33.1149 36.445C33.1149 34.4015 30.3816 32.745 27.0099 32.745C23.6382 32.745 20.9049 34.4015 20.9049 36.445C20.9049 38.4884 23.6382 40.145 27.0099 40.145Z" stroke="black" stroke-width="2" stroke-miterlimit="10" stroke-linecap="round" stroke-linejoin="round"/>
<path d="M47.1749 40.145C50.5466 40.145 53.2799 38.4884 53.2799 36.445C53.2799 34.4015 50.5466 32.745 47.1749 32.745C43.8032 32.745 41.0699 34.4015 41.0699 36.445C41.0699 38.4884 43.8032 40.145 47.1749 40.145Z" stroke="black" stroke-width="2" stroke-miterlimit="10" stroke-linecap="round" stroke-linejoin="round"/>
<path d="M37 54.76C40.0651 54.76 42.5499 53.6832 42.5499 52.355C42.5499 51.0267 40.0651 49.95 37 49.95C33.9348 49.95 31.45 51.0267 31.45 52.355C31.45 53.6832 33.9348 54.76 37 54.76Z" stroke="black" stroke-width="2" stroke-miterlimit="10" stroke-linecap="round" stroke-linejoin="round"/>
</svg>
