<svg width="64" height="45" viewBox="0 0 64 45" fill="none" xmlns="http://www.w3.org/2000/svg">
<path d="M11.032 16.6381C11.9232 11.0816 10.3436 3.82679 9.26574 0.999875C18.2298 4.86059 22.3144 9.3126 23.2591 11.2774C27.5577 20.2133 21.5521 25.3737 18.5346 25.537C11.4422 25.922 10.4021 20.5679 11.032 16.6381Z" fill="#FDE4DB" stroke="black" stroke-width="2" stroke-linecap="round" stroke-linejoin="round"/>
<path d="M22.709 32.2942C21.6198 31.5332 19.3794 29.1684 19.1322 25.7946" stroke="black" stroke-width="2" stroke-linecap="round" stroke-linejoin="round"/>
<path d="M41.9998 18C50.3848 15.88 59.6648 9.24 62.9998 6C62.9998 21 59.1988 29.472 56.9998 32C46.9998 43.5 36.0648 38.16 33.9998 34C29.1448 24.223 36.0698 19.5 41.9998 18Z" fill="#FDE4DB" stroke="black" stroke-width="2" stroke-linecap="round" stroke-linejoin="round"/>
<path d="M27 44C27.412 42 29.388 37.4 34 35" stroke="black" stroke-width="2" stroke-linecap="round" stroke-linejoin="round"/>
</svg>
