<svg width="63" height="63" viewBox="0 0 63 63" fill="none" xmlns="http://www.w3.org/2000/svg">
<path d="M44.205 38.115C43.5225 37.6163 42.5775 36.4613 42.1312 35.91C45.255 31.5263 49.875 23.2838 49.875 13.125C49.875 8.00625 47.9325 5.25 44.625 5.25C40.5825 5.25 34.23 10.6575 31.5 20.9212C28.77 10.6575 22.4175 5.25 18.375 5.25C15.0675 5.25 13.125 8.00625 13.125 13.125C13.125 23.2838 17.745 31.5263 20.8687 35.91C20.4225 36.4613 19.4775 37.6163 18.795 38.115C17.4825 39.1912 14.4375 41.7113 14.4375 45.9375C14.4375 51.7388 19.1363 56.4375 24.9375 56.4375C29.0062 56.4375 31.5 54.9675 31.5 54.9675C31.5 54.9675 33.9937 56.4375 38.0625 56.4375C43.8638 56.4375 48.5625 51.7388 48.5625 45.9375C48.5625 41.7113 45.5175 39.1912 44.205 38.115ZM24.5438 32.025C21.8925 28.0875 18.375 21.315 18.375 13.125C18.375 11.8387 18.5325 11.025 18.69 10.5788C21.1575 11.3925 27.195 17.6925 27.5625 30.6338C26.3287 30.9487 25.3575 31.4212 24.5438 32.025ZM27.5625 43.9688C26.8275 43.9688 26.25 43.0762 26.25 42C26.25 40.9238 26.8275 40.0312 27.5625 40.0312C28.2975 40.0312 28.875 40.9238 28.875 42C28.875 43.0762 28.2975 43.9688 27.5625 43.9688ZM31.5 51.1875C30.0562 51.1875 28.875 49.2975 28.875 48.5625C28.875 47.8275 30.0562 47.25 31.5 47.25C32.9438 47.25 34.125 47.8275 34.125 48.5625C34.125 49.2975 32.9438 51.1875 31.5 51.1875ZM35.4375 43.9688C34.7025 43.9688 34.125 43.0762 34.125 42C34.125 40.9238 34.7025 40.0312 35.4375 40.0312C36.1725 40.0312 36.75 40.9238 36.75 42C36.75 43.0762 36.1725 43.9688 35.4375 43.9688ZM35.4375 30.6338C35.805 17.6925 41.8425 11.3925 44.31 10.5788C44.4675 11.025 44.625 11.8387 44.625 13.125C44.625 21.315 41.1075 28.0875 38.4562 32.025C37.6425 31.4212 36.6712 30.9487 35.4375 30.6338Z" fill="#FCCAB8" stroke="black" stroke-width="2" stroke-linejoin="bevel"/>
</svg>
