<svg width="68" height="68" viewBox="0 0 68 68" fill="none" xmlns="http://www.w3.org/2000/svg">
<path d="M18.4165 26.9168C18.4165 25.352 19.685 24.0835 21.2498 24.0835H43.9165C45.4814 24.0835 46.7498 25.352 46.7498 26.9168V53.8335C46.7498 53.8335 46.7498 62.3335 38.2498 62.3335C29.7498 62.3335 35.4165 62.3335 26.9165 62.3335C18.4165 62.3335 18.4165 53.8335 18.4165 53.8335V26.9168Z" fill="#ECD0C7" stroke="black" stroke-width="2" stroke-linecap="round" stroke-linejoin="round"/>
<path d="M39.6667 17H25.5V24.0833H39.6667V17Z" stroke="black" stroke-width="2" stroke-linecap="round" stroke-linejoin="round"/>
<path d="M25.5 17.0001C25.5 14.1667 25.5001 17.0001 25.5 12.7501C25.4999 8.50008 29.75 5.66675 34 5.66675C38.25 5.66675 49.5833 5.66675 49.5833 5.66675C49.5833 5.66675 39.6668 8.50008 39.6667 14.1667C39.6665 19.8334 39.6667 17.0001 39.6667 17.0001" stroke="black" stroke-width="2" stroke-linecap="round" stroke-linejoin="round"/>
</svg>
