<svg width="63" height="63" viewBox="0 0 63 63" fill="none" xmlns="http://www.w3.org/2000/svg">
<g clip-path="url(#clip0_2403_789)">
<mask id="path-1-outside-1_2403_789" maskUnits="userSpaceOnUse" x="0.175293" y="0.65625" width="63" height="63" fill="black">
<rect fill="white" x="0.175293" y="0.65625" width="63" height="63"/>
<path d="M20.0754 2.65637L8.09188 2.66216C8.17924 3.357 8.36172 4.21993 8.7914 5.04348C9.54026 6.47882 10.8165 7.76614 14.0439 7.76614C17.2013 7.76614 18.5207 6.4803 19.3115 5.03745C19.7588 4.22165 19.9677 3.35171 20.0753 2.65625L20.0754 2.65637ZM37.8973 2.65637L25.9137 2.66216C26.0011 3.357 26.1836 4.21993 26.6133 5.04348C27.3623 6.47882 28.6384 7.76614 31.8659 7.76614C35.0233 7.76614 36.3427 6.4803 37.1335 5.03745C37.5808 4.22165 37.7897 3.35208 37.8973 2.65637ZM54.7129 2.65637L42.7293 2.66216C42.8167 3.357 42.9992 4.21993 43.4289 5.04348C43.7131 5.58809 44.0734 6.11116 44.587 6.55081C44.591 6.5545 44.5956 6.55782 44.5996 6.56139C44.6479 6.60236 44.6977 6.64235 44.7485 6.68197C44.7586 6.68936 44.7686 6.69723 44.7787 6.70486C44.8304 6.74424 44.8835 6.78263 44.9383 6.82028L44.953 6.83062C45.0138 6.87221 45.0766 6.91281 45.1413 6.95219C45.1487 6.95674 45.1567 6.9608 45.1642 6.96535C45.2196 6.99857 45.2762 7.03106 45.3342 7.06256C45.3499 7.07117 45.3659 7.07929 45.3817 7.08778C45.4378 7.11731 45.4953 7.14611 45.554 7.17392C45.5663 7.17982 45.5782 7.18585 45.5907 7.19151C45.6633 7.22535 45.7377 7.25796 45.8146 7.28909L45.8264 7.29401C45.8984 7.32305 45.9728 7.35061 46.0486 7.37731C46.0654 7.38322 46.0825 7.38888 46.0993 7.39454C46.1615 7.41583 46.2248 7.43613 46.2894 7.45569C46.3128 7.46271 46.3357 7.46997 46.3596 7.47686C46.443 7.50097 46.5285 7.52398 46.6168 7.54527C46.6213 7.5465 46.6266 7.54749 46.6313 7.54872C46.7434 7.57544 46.8563 7.59932 46.9697 7.62033C47.0393 7.63337 47.1104 7.64543 47.1828 7.65687C47.2086 7.66094 47.234 7.66524 47.2603 7.66918C47.3593 7.6837 47.4602 7.69711 47.5645 7.70855C47.5731 7.70942 47.5821 7.71003 47.5907 7.71102C47.6859 7.72111 47.7836 7.72972 47.883 7.7371C47.9169 7.73956 47.9512 7.74153 47.9855 7.74375C48.0613 7.74867 48.1386 7.75236 48.2169 7.75568C48.2562 7.7574 48.2954 7.75937 48.3352 7.76036C48.4484 7.7638 48.5631 7.76614 48.6814 7.76614C48.9107 7.76572 49.14 7.75825 49.3689 7.74375C49.4004 7.74165 49.4322 7.73956 49.4633 7.73722C49.5685 7.72932 49.6735 7.71968 49.7783 7.70831C49.7795 7.70806 49.7805 7.70831 49.7818 7.70806C49.8843 7.69662 49.9836 7.68296 50.0813 7.66832C50.1046 7.66487 50.128 7.66093 50.1511 7.65724C50.2267 7.64517 50.3021 7.63196 50.3773 7.61762C50.4013 7.61307 50.4253 7.60876 50.4492 7.60409C50.5405 7.58563 50.6304 7.56594 50.7174 7.54453C50.7183 7.54453 50.7191 7.54404 50.7199 7.54392C50.809 7.52177 50.895 7.49839 50.9795 7.47354C50.9977 7.46824 51.0154 7.46271 51.0334 7.45717C51.1023 7.43625 51.1697 7.41435 51.2358 7.39159C51.2518 7.38605 51.2683 7.38076 51.2843 7.37497C51.4408 7.31971 51.5946 7.25688 51.7451 7.18671C51.7553 7.18216 51.7652 7.17724 51.7751 7.17244C51.8369 7.14318 51.898 7.11254 51.9585 7.08052C51.9702 7.07437 51.9821 7.06822 51.9938 7.06182C52.1275 6.98977 52.2575 6.91105 52.3833 6.82594L52.4046 6.81117C52.4598 6.77327 52.5134 6.73464 52.5658 6.69514C52.5732 6.68936 52.5812 6.6837 52.5888 6.67791C53.1969 6.2128 53.6191 5.63903 53.9487 5.0377C54.396 4.2219 54.605 3.3522 54.7125 2.6565L54.7129 2.65637ZM18.2787 9.10526C17.5974 9.45927 16.8173 9.73428 15.9337 9.89768C15.9198 15.7116 15.88 24.7421 15.8988 29.7141C15.9028 30.7104 15.0662 31.5398 13.9799 31.5411C12.8938 31.5424 12.0696 30.7224 12.0724 29.7207V29.7198C12.0835 24.7887 12.1165 15.7323 12.1097 9.89227C11.2356 9.72898 10.4648 9.45816 9.79325 9.10994C9.79657 21.9506 9.73788 44.1808 9.71967 53.1041C9.71413 55.645 11.6339 57.6249 13.9615 57.6217C16.2891 57.618 18.2307 55.6263 18.222 53.0914C18.1902 43.8966 18.2527 21.7273 18.2786 9.10526H18.2787ZM36.1004 9.10526C35.418 9.45988 34.6365 9.73501 33.7515 9.8983C33.7352 14.4375 33.7031 18.7032 33.7207 23.3134C33.7244 24.3095 32.8877 25.139 31.8012 25.1402C30.7152 25.1415 29.891 24.3212 29.8939 23.3196V23.3191C29.9042 18.7299 29.9316 14.4444 29.9301 9.89227C29.0565 9.72886 28.286 9.45816 27.6146 9.11006C27.6179 21.9507 27.5592 44.1809 27.541 53.1042C27.5355 55.6452 29.4556 57.625 31.7831 57.6218C34.1106 57.6181 36.0523 55.6264 36.0436 53.0916C36.0118 43.8968 36.0743 21.7274 36.1002 9.10538L36.1004 9.10526ZM52.916 9.10526C52.2351 9.45914 51.4552 9.73403 50.5722 9.89744C50.5595 16.2651 50.5168 30.2638 50.5362 35.3861C50.5396 36.3823 49.7031 37.2117 48.617 37.2131C47.5309 37.2143 46.7068 36.3941 46.7095 35.3924V35.3921C46.7211 30.3109 46.7571 16.327 46.7474 9.89264C45.8731 9.72948 45.1019 9.45853 44.4302 9.11006C44.4335 21.9509 44.3748 44.1811 44.3566 53.1045C44.3511 55.6452 46.2712 57.625 48.5987 57.6219C50.9262 57.6182 52.8679 55.6266 52.8592 53.0917C52.8274 43.8969 52.8899 21.7275 52.9158 9.10551L52.916 9.10526ZM2.17529 12.0832V18.4515H7.48809C7.49092 16.2521 7.49399 14.0483 7.49486 12.0834L2.17529 12.0832ZM20.5717 12.0832C20.5672 14.1111 20.5634 16.1184 20.5581 18.4515H25.3097C25.3124 16.2521 25.3156 14.0483 25.3165 12.0834H20.5718L20.5717 12.0832ZM38.3933 12.0832C38.3889 14.1111 38.385 16.1184 38.3797 18.4515H42.1253C42.1281 16.2521 42.1312 14.0483 42.1321 12.0834L38.3933 12.0832ZM55.2089 12.0832C55.2044 14.1111 55.2006 16.1184 55.1953 18.4515H60.5888V12.0832H55.2089ZM2.17529 54.5639V60.9322H60.5888V54.5639H55.0042C54.359 57.6007 51.7428 59.9165 48.6019 59.9214H48.6016C45.4558 59.9256 42.8492 57.6039 42.2093 54.5639H38.1887C37.5434 57.6007 34.9272 59.9165 31.7863 59.9214H31.786C28.6402 59.9256 26.0336 57.6039 25.3937 54.5639H20.3673C19.7218 57.6007 17.1056 59.9165 13.9647 59.9214H13.9644C10.8186 59.9256 8.21197 57.6039 7.57213 54.5639H2.17529Z"/>
</mask>
<path d="M20.0754 2.65637L8.09188 2.66216C8.17924 3.357 8.36172 4.21993 8.7914 5.04348C9.54026 6.47882 10.8165 7.76614 14.0439 7.76614C17.2013 7.76614 18.5207 6.4803 19.3115 5.03745C19.7588 4.22165 19.9677 3.35171 20.0753 2.65625L20.0754 2.65637ZM37.8973 2.65637L25.9137 2.66216C26.0011 3.357 26.1836 4.21993 26.6133 5.04348C27.3623 6.47882 28.6384 7.76614 31.8659 7.76614C35.0233 7.76614 36.3427 6.4803 37.1335 5.03745C37.5808 4.22165 37.7897 3.35208 37.8973 2.65637ZM54.7129 2.65637L42.7293 2.66216C42.8167 3.357 42.9992 4.21993 43.4289 5.04348C43.7131 5.58809 44.0734 6.11116 44.587 6.55081C44.591 6.5545 44.5956 6.55782 44.5996 6.56139C44.6479 6.60236 44.6977 6.64235 44.7485 6.68197C44.7586 6.68936 44.7686 6.69723 44.7787 6.70486C44.8304 6.74424 44.8835 6.78263 44.9383 6.82028L44.953 6.83062C45.0138 6.87221 45.0766 6.91281 45.1413 6.95219C45.1487 6.95674 45.1567 6.9608 45.1642 6.96535C45.2196 6.99857 45.2762 7.03106 45.3342 7.06256C45.3499 7.07117 45.3659 7.07929 45.3817 7.08778C45.4378 7.11731 45.4953 7.14611 45.554 7.17392C45.5663 7.17982 45.5782 7.18585 45.5907 7.19151C45.6633 7.22535 45.7377 7.25796 45.8146 7.28909L45.8264 7.29401C45.8984 7.32305 45.9728 7.35061 46.0486 7.37731C46.0654 7.38322 46.0825 7.38888 46.0993 7.39454C46.1615 7.41583 46.2248 7.43613 46.2894 7.45569C46.3128 7.46271 46.3357 7.46997 46.3596 7.47686C46.443 7.50097 46.5285 7.52398 46.6168 7.54527C46.6213 7.5465 46.6266 7.54749 46.6313 7.54872C46.7434 7.57544 46.8563 7.59932 46.9697 7.62033C47.0393 7.63337 47.1104 7.64543 47.1828 7.65687C47.2086 7.66094 47.234 7.66524 47.2603 7.66918C47.3593 7.6837 47.4602 7.69711 47.5645 7.70855C47.5731 7.70942 47.5821 7.71003 47.5907 7.71102C47.6859 7.72111 47.7836 7.72972 47.883 7.7371C47.9169 7.73956 47.9512 7.74153 47.9855 7.74375C48.0613 7.74867 48.1386 7.75236 48.2169 7.75568C48.2562 7.7574 48.2954 7.75937 48.3352 7.76036C48.4484 7.7638 48.5631 7.76614 48.6814 7.76614C48.9107 7.76572 49.14 7.75825 49.3689 7.74375C49.4004 7.74165 49.4322 7.73956 49.4633 7.73722C49.5685 7.72932 49.6735 7.71968 49.7783 7.70831C49.7795 7.70806 49.7805 7.70831 49.7818 7.70806C49.8843 7.69662 49.9836 7.68296 50.0813 7.66832C50.1046 7.66487 50.128 7.66093 50.1511 7.65724C50.2267 7.64517 50.3021 7.63196 50.3773 7.61762C50.4013 7.61307 50.4253 7.60876 50.4492 7.60409C50.5405 7.58563 50.6304 7.56594 50.7174 7.54453C50.7183 7.54453 50.7191 7.54404 50.7199 7.54392C50.809 7.52177 50.895 7.49839 50.9795 7.47354C50.9977 7.46824 51.0154 7.46271 51.0334 7.45717C51.1023 7.43625 51.1697 7.41435 51.2358 7.39159C51.2518 7.38605 51.2683 7.38076 51.2843 7.37497C51.4408 7.31971 51.5946 7.25688 51.7451 7.18671C51.7553 7.18216 51.7652 7.17724 51.7751 7.17244C51.8369 7.14318 51.898 7.11254 51.9585 7.08052C51.9702 7.07437 51.9821 7.06822 51.9938 7.06182C52.1275 6.98977 52.2575 6.91105 52.3833 6.82594L52.4046 6.81117C52.4598 6.77327 52.5134 6.73464 52.5658 6.69514C52.5732 6.68936 52.5812 6.6837 52.5888 6.67791C53.1969 6.2128 53.6191 5.63903 53.9487 5.0377C54.396 4.2219 54.605 3.3522 54.7125 2.6565L54.7129 2.65637ZM18.2787 9.10526C17.5974 9.45927 16.8173 9.73428 15.9337 9.89768C15.9198 15.7116 15.88 24.7421 15.8988 29.7141C15.9028 30.7104 15.0662 31.5398 13.9799 31.5411C12.8938 31.5424 12.0696 30.7224 12.0724 29.7207V29.7198C12.0835 24.7887 12.1165 15.7323 12.1097 9.89227C11.2356 9.72898 10.4648 9.45816 9.79325 9.10994C9.79657 21.9506 9.73788 44.1808 9.71967 53.1041C9.71413 55.645 11.6339 57.6249 13.9615 57.6217C16.2891 57.618 18.2307 55.6263 18.222 53.0914C18.1902 43.8966 18.2527 21.7273 18.2786 9.10526H18.2787ZM36.1004 9.10526C35.418 9.45988 34.6365 9.73501 33.7515 9.8983C33.7352 14.4375 33.7031 18.7032 33.7207 23.3134C33.7244 24.3095 32.8877 25.139 31.8012 25.1402C30.7152 25.1415 29.891 24.3212 29.8939 23.3196V23.3191C29.9042 18.7299 29.9316 14.4444 29.9301 9.89227C29.0565 9.72886 28.286 9.45816 27.6146 9.11006C27.6179 21.9507 27.5592 44.1809 27.541 53.1042C27.5355 55.6452 29.4556 57.625 31.7831 57.6218C34.1106 57.6181 36.0523 55.6264 36.0436 53.0916C36.0118 43.8968 36.0743 21.7274 36.1002 9.10538L36.1004 9.10526ZM52.916 9.10526C52.2351 9.45914 51.4552 9.73403 50.5722 9.89744C50.5595 16.2651 50.5168 30.2638 50.5362 35.3861C50.5396 36.3823 49.7031 37.2117 48.617 37.2131C47.5309 37.2143 46.7068 36.3941 46.7095 35.3924V35.3921C46.7211 30.3109 46.7571 16.327 46.7474 9.89264C45.8731 9.72948 45.1019 9.45853 44.4302 9.11006C44.4335 21.9509 44.3748 44.1811 44.3566 53.1045C44.3511 55.6452 46.2712 57.625 48.5987 57.6219C50.9262 57.6182 52.8679 55.6266 52.8592 53.0917C52.8274 43.8969 52.8899 21.7275 52.9158 9.10551L52.916 9.10526ZM2.17529 12.0832V18.4515H7.48809C7.49092 16.2521 7.49399 14.0483 7.49486 12.0834L2.17529 12.0832ZM20.5717 12.0832C20.5672 14.1111 20.5634 16.1184 20.5581 18.4515H25.3097C25.3124 16.2521 25.3156 14.0483 25.3165 12.0834H20.5718L20.5717 12.0832ZM38.3933 12.0832C38.3889 14.1111 38.385 16.1184 38.3797 18.4515H42.1253C42.1281 16.2521 42.1312 14.0483 42.1321 12.0834L38.3933 12.0832ZM55.2089 12.0832C55.2044 14.1111 55.2006 16.1184 55.1953 18.4515H60.5888V12.0832H55.2089ZM2.17529 54.5639V60.9322H60.5888V54.5639H55.0042C54.359 57.6007 51.7428 59.9165 48.6019 59.9214H48.6016C45.4558 59.9256 42.8492 57.6039 42.2093 54.5639H38.1887C37.5434 57.6007 34.9272 59.9165 31.7863 59.9214H31.786C28.6402 59.9256 26.0336 57.6039 25.3937 54.5639H20.3673C19.7218 57.6007 17.1056 59.9165 13.9647 59.9214H13.9644C10.8186 59.9256 8.21197 57.6039 7.57213 54.5639H2.17529Z" fill="#ECD0C7"/>
<path d="M20.0754 2.65637L8.09188 2.66216C8.17924 3.357 8.36172 4.21993 8.7914 5.04348C9.54026 6.47882 10.8165 7.76614 14.0439 7.76614C17.2013 7.76614 18.5207 6.4803 19.3115 5.03745C19.7588 4.22165 19.9677 3.35171 20.0753 2.65625L20.0754 2.65637ZM37.8973 2.65637L25.9137 2.66216C26.0011 3.357 26.1836 4.21993 26.6133 5.04348C27.3623 6.47882 28.6384 7.76614 31.8659 7.76614C35.0233 7.76614 36.3427 6.4803 37.1335 5.03745C37.5808 4.22165 37.7897 3.35208 37.8973 2.65637ZM54.7129 2.65637L42.7293 2.66216C42.8167 3.357 42.9992 4.21993 43.4289 5.04348C43.7131 5.58809 44.0734 6.11116 44.587 6.55081C44.591 6.5545 44.5956 6.55782 44.5996 6.56139C44.6479 6.60236 44.6977 6.64235 44.7485 6.68197C44.7586 6.68936 44.7686 6.69723 44.7787 6.70486C44.8304 6.74424 44.8835 6.78263 44.9383 6.82028L44.953 6.83062C45.0138 6.87221 45.0766 6.91281 45.1413 6.95219C45.1487 6.95674 45.1567 6.9608 45.1642 6.96535C45.2196 6.99857 45.2762 7.03106 45.3342 7.06256C45.3499 7.07117 45.3659 7.07929 45.3817 7.08778C45.4378 7.11731 45.4953 7.14611 45.554 7.17392C45.5663 7.17982 45.5782 7.18585 45.5907 7.19151C45.6633 7.22535 45.7377 7.25796 45.8146 7.28909L45.8264 7.29401C45.8984 7.32305 45.9728 7.35061 46.0486 7.37731C46.0654 7.38322 46.0825 7.38888 46.0993 7.39454C46.1615 7.41583 46.2248 7.43613 46.2894 7.45569C46.3128 7.46271 46.3357 7.46997 46.3596 7.47686C46.443 7.50097 46.5285 7.52398 46.6168 7.54527C46.6213 7.5465 46.6266 7.54749 46.6313 7.54872C46.7434 7.57544 46.8563 7.59932 46.9697 7.62033C47.0393 7.63337 47.1104 7.64543 47.1828 7.65687C47.2086 7.66094 47.234 7.66524 47.2603 7.66918C47.3593 7.6837 47.4602 7.69711 47.5645 7.70855C47.5731 7.70942 47.5821 7.71003 47.5907 7.71102C47.6859 7.72111 47.7836 7.72972 47.883 7.7371C47.9169 7.73956 47.9512 7.74153 47.9855 7.74375C48.0613 7.74867 48.1386 7.75236 48.2169 7.75568C48.2562 7.7574 48.2954 7.75937 48.3352 7.76036C48.4484 7.7638 48.5631 7.76614 48.6814 7.76614C48.9107 7.76572 49.14 7.75825 49.3689 7.74375C49.4004 7.74165 49.4322 7.73956 49.4633 7.73722C49.5685 7.72932 49.6735 7.71968 49.7783 7.70831C49.7795 7.70806 49.7805 7.70831 49.7818 7.70806C49.8843 7.69662 49.9836 7.68296 50.0813 7.66832C50.1046 7.66487 50.128 7.66093 50.1511 7.65724C50.2267 7.64517 50.3021 7.63196 50.3773 7.61762C50.4013 7.61307 50.4253 7.60876 50.4492 7.60409C50.5405 7.58563 50.6304 7.56594 50.7174 7.54453C50.7183 7.54453 50.7191 7.54404 50.7199 7.54392C50.809 7.52177 50.895 7.49839 50.9795 7.47354C50.9977 7.46824 51.0154 7.46271 51.0334 7.45717C51.1023 7.43625 51.1697 7.41435 51.2358 7.39159C51.2518 7.38605 51.2683 7.38076 51.2843 7.37497C51.4408 7.31971 51.5946 7.25688 51.7451 7.18671C51.7553 7.18216 51.7652 7.17724 51.7751 7.17244C51.8369 7.14318 51.898 7.11254 51.9585 7.08052C51.9702 7.07437 51.9821 7.06822 51.9938 7.06182C52.1275 6.98977 52.2575 6.91105 52.3833 6.82594L52.4046 6.81117C52.4598 6.77327 52.5134 6.73464 52.5658 6.69514C52.5732 6.68936 52.5812 6.6837 52.5888 6.67791C53.1969 6.2128 53.6191 5.63903 53.9487 5.0377C54.396 4.2219 54.605 3.3522 54.7125 2.6565L54.7129 2.65637ZM18.2787 9.10526C17.5974 9.45927 16.8173 9.73428 15.9337 9.89768C15.9198 15.7116 15.88 24.7421 15.8988 29.7141C15.9028 30.7104 15.0662 31.5398 13.9799 31.5411C12.8938 31.5424 12.0696 30.7224 12.0724 29.7207V29.7198C12.0835 24.7887 12.1165 15.7323 12.1097 9.89227C11.2356 9.72898 10.4648 9.45816 9.79325 9.10994C9.79657 21.9506 9.73788 44.1808 9.71967 53.1041C9.71413 55.645 11.6339 57.6249 13.9615 57.6217C16.2891 57.618 18.2307 55.6263 18.222 53.0914C18.1902 43.8966 18.2527 21.7273 18.2786 9.10526H18.2787ZM36.1004 9.10526C35.418 9.45988 34.6365 9.73501 33.7515 9.8983C33.7352 14.4375 33.7031 18.7032 33.7207 23.3134C33.7244 24.3095 32.8877 25.139 31.8012 25.1402C30.7152 25.1415 29.891 24.3212 29.8939 23.3196V23.3191C29.9042 18.7299 29.9316 14.4444 29.9301 9.89227C29.0565 9.72886 28.286 9.45816 27.6146 9.11006C27.6179 21.9507 27.5592 44.1809 27.541 53.1042C27.5355 55.6452 29.4556 57.625 31.7831 57.6218C34.1106 57.6181 36.0523 55.6264 36.0436 53.0916C36.0118 43.8968 36.0743 21.7274 36.1002 9.10538L36.1004 9.10526ZM52.916 9.10526C52.2351 9.45914 51.4552 9.73403 50.5722 9.89744C50.5595 16.2651 50.5168 30.2638 50.5362 35.3861C50.5396 36.3823 49.7031 37.2117 48.617 37.2131C47.5309 37.2143 46.7068 36.3941 46.7095 35.3924V35.3921C46.7211 30.3109 46.7571 16.327 46.7474 9.89264C45.8731 9.72948 45.1019 9.45853 44.4302 9.11006C44.4335 21.9509 44.3748 44.1811 44.3566 53.1045C44.3511 55.6452 46.2712 57.625 48.5987 57.6219C50.9262 57.6182 52.8679 55.6266 52.8592 53.0917C52.8274 43.8969 52.8899 21.7275 52.9158 9.10551L52.916 9.10526ZM2.17529 12.0832V18.4515H7.48809C7.49092 16.2521 7.49399 14.0483 7.49486 12.0834L2.17529 12.0832ZM20.5717 12.0832C20.5672 14.1111 20.5634 16.1184 20.5581 18.4515H25.3097C25.3124 16.2521 25.3156 14.0483 25.3165 12.0834H20.5718L20.5717 12.0832ZM38.3933 12.0832C38.3889 14.1111 38.385 16.1184 38.3797 18.4515H42.1253C42.1281 16.2521 42.1312 14.0483 42.1321 12.0834L38.3933 12.0832ZM55.2089 12.0832C55.2044 14.1111 55.2006 16.1184 55.1953 18.4515H60.5888V12.0832H55.2089ZM2.17529 54.5639V60.9322H60.5888V54.5639H55.0042C54.359 57.6007 51.7428 59.9165 48.6019 59.9214H48.6016C45.4558 59.9256 42.8492 57.6039 42.2093 54.5639H38.1887C37.5434 57.6007 34.9272 59.9165 31.7863 59.9214H31.786C28.6402 59.9256 26.0336 57.6039 25.3937 54.5639H20.3673C19.7218 57.6007 17.1056 59.9165 13.9647 59.9214H13.9644C10.8186 59.9256 8.21197 57.6039 7.57213 54.5639H2.17529Z" stroke="black" stroke-width="4" stroke-linejoin="round" mask="url(#path-1-outside-1_2403_789)"/>
</g>
<defs>
<clipPath id="clip0_2403_789">
<rect width="63" height="63" fill="white"/>
</clipPath>
</defs>
</svg>
