<svg width="44" height="44" viewBox="0 0 44 44" fill="none" xmlns="http://www.w3.org/2000/svg">
<path d="M21.8054 39.9417V40.9417H22.8054H33.5802V43H7.3207V40.9417H18.0955H19.0955V39.9417V37.8111V36.8939L18.1817 36.8148C14.5834 36.5035 11.131 35.4563 8.112 33.7677C5.45161 32.2797 3.20063 30.3345 1.49334 28.0694L3.76448 26.9518C5.24082 28.9421 7.17066 30.6422 9.42924 31.9506C11.956 33.4144 14.8319 34.3519 17.8329 34.6974C20.8341 35.0428 23.8883 34.7879 26.7606 33.9503C29.633 33.1128 32.2541 31.7129 34.4162 29.8498C36.5789 27.9864 38.2267 25.7072 39.2182 23.1826C40.2102 20.6568 40.5148 17.9619 40.1038 15.3111C39.6929 12.6609 38.5801 10.1397 36.865 7.94145C35.3715 6.02742 33.4571 4.40357 31.2439 3.15649L32.4762 1.29921C35.5873 2.97733 38.1653 5.2778 39.993 7.99283C41.97 10.9298 43.0019 14.2509 43 17.6205V17.6211C43 27.5006 34.2364 35.8311 22.7203 36.8147L21.8054 36.8929V37.8111V39.9417ZM20.4504 30.8251C18.3979 30.8251 16.3682 30.4767 14.4782 29.8021C12.5881 29.1275 10.8795 28.1418 9.44676 26.9073C8.01426 25.673 6.88728 24.2158 6.12184 22.6235C5.35671 21.0319 4.96575 19.3326 4.96575 17.6211C4.96575 15.9096 5.35671 14.2103 6.12184 12.6187C6.88728 11.0264 8.01426 9.56922 9.44676 8.33491C10.8795 7.10038 12.5881 6.11467 14.4782 5.44011C16.3682 4.76555 18.3979 4.41708 20.4504 4.41708C24.6014 4.41708 28.5577 5.83922 31.4541 8.33491C34.3459 10.8266 35.9351 14.1713 35.9351 17.6211C35.9351 21.0709 34.3459 24.4156 31.4541 26.9073C28.5577 29.403 24.6014 30.8251 20.4504 30.8251Z" fill="#FCCAB8" stroke="black" stroke-width="2"/>
</svg>
