<svg width="40" height="36" viewBox="0 0 40 36" fill="none" xmlns="http://www.w3.org/2000/svg">
<path d="M21.4449 4.23344L22.2083 5.13563L22.9717 4.23344C24.664 2.23351 27.2906 1 29.8958 1C34.6394 1 38.2917 4.65229 38.2917 9.39583C38.2917 12.3039 37.0051 15.0275 34.2115 18.3631C31.5174 21.58 27.5317 25.2406 22.2139 30.0768C16.8925 25.1585 12.9029 21.4561 10.2052 18.235C7.40575 14.8924 6.125 12.2129 6.125 9.39583C6.125 4.65229 9.77729 1 14.5208 1C17.1261 1 19.7527 2.23351 21.4449 4.23344ZM1 13.6667C1 13.284 1.02676 12.9073 1.07765 12.5379C1.75696 15.5274 3.35117 18.293 5.675 21.1332C8.65137 24.771 12.905 28.625 18.1325 33.3008L17.0937 34.2011C11.7661 29.4353 7.77428 25.8093 5.0782 22.6103C2.28654 19.2978 1 16.5746 1 13.6667Z" fill="#ECD0C7" stroke="black" stroke-width="2"/>
</svg>
